<svg width="526" height="305" viewBox="0 0 526 305" fill="none" xmlns="http://www.w3.org/2000/svg">
<path fill-rule="evenodd" clip-rule="evenodd" d="M214.718 300.823L216.183 284.963H208.933L209.362 300.481L214.718 300.823Z" fill="url(#paint0_linear_1_19)"/>
<path d="M316.247 303.3H320.257L306.216 184.301H295.785L316.247 303.3Z" fill="#B3B3B3"/>
<path opacity="0.32" d="M301.969 220.219L295.799 184.301H306.23L309.19 209.359C307.547 213.246 304.958 216.881 301.969 220.219Z" fill="#B3B3B3"/>
<path d="M179.356 303.3H175.346L189.387 184.301H199.818L179.356 303.3Z" fill="#B3B3B3"/>
<path opacity="0.32" d="M184.579 225.085L189.387 184.316H199.818L194.388 215.857C191.622 219.329 188.278 222.415 184.579 225.085Z" fill="#B3B3B3"/>
<path d="M191.089 41.9652H320.967V142.686H191.089V41.9652Z" fill="#FCCB92"/>
<path d="M210.1 190.163C184.74 164.734 184.74 123.506 210.1 98.0776C235.46 72.6489 276.577 72.6489 301.937 98.0776C327.297 123.506 327.297 164.734 301.937 190.163C276.577 215.592 235.46 215.592 210.1 190.163Z" fill="#FCCB92"/>
<path d="M256.013 209.166H213.815C230.209 208.41 244.99 201.57 256.013 190.844V209.166Z" fill="#FCCB92"/>
<path d="M210.797 209.241C209.791 209.241 208.785 209.211 207.779 209.166H213.815C212.824 209.211 211.818 209.241 210.797 209.241Z" fill="#FCCB92"/>
<path d="M256.013 112.08V190.829C244.99 201.555 230.194 208.41 213.815 209.151H207.779C173.319 207.564 145.858 179.064 145.858 144.111C145.858 132.464 148.921 121.53 154.277 112.065H256.013V112.08Z" fill="#FCCB92"/>
<path d="M204.02 52.2317H308.021V142.686H204.02V52.2317Z" fill="#E39A46"/>
<path d="M188.411 191.883H245.345V121.397H163.687C149.882 144.126 165.699 181.364 188.411 191.883Z" fill="#E39A46"/>
<path d="M204.02 94.5437C214.895 87.7043 228.419 83.6541 243.082 83.6541C278.947 83.6541 308.021 107.881 308.021 137.776C308.021 167.67 278.947 191.897 243.082 191.897C228.419 191.897 214.895 187.847 204.02 181.008V94.5437Z" fill="#E39A46"/>
<path d="M276.432 144.051C276.432 132.435 273.384 121.53 268.057 112.095H312.045V163.205L306.586 182.239L290.192 185.696L271.209 187.743L256.013 190.844C269.019 182.476 276.432 160.861 276.432 144.051Z" fill="#FCCB92"/>
<path d="M289.348 303.3H293.358L279.317 184.301C273.827 184.301 269.611 189.197 270.41 194.642L289.348 303.3Z" fill="#C9C9C9"/>
<path d="M152.457 303.3H148.447L162.488 184.301C167.978 184.301 172.194 189.197 171.395 194.642L152.457 303.3Z" fill="#C9C9C9"/>
<path opacity="0.36" d="M166.942 220.204C164.012 223.097 160.757 225.619 157.339 227.934L162.488 184.301C167.978 184.301 172.194 189.197 171.395 194.642L166.942 220.204Z" fill="#C9C9C9"/>
<path opacity="0.36" d="M275.973 226.599L270.41 194.657C269.611 189.197 273.828 184.316 279.317 184.316L283.223 217.371C281.373 220.798 278.858 223.854 275.973 226.599Z" fill="#C9C9C9"/>
<path d="M218.491 294.28C218.491 294.28 234.929 223.854 234.929 194.182C234.929 164.51 216.286 165.415 210.96 177.402C205.633 189.39 209.14 294.087 209.14 294.087L218.491 294.28Z" fill="#4A4A4A"/>
<path d="M276.195 149.392C276.195 149.392 273.813 186.052 256.753 190.117C239.693 194.182 186.547 191.882 186.547 191.882L175.346 168.753L183.617 166.75L217.322 166.275L223.048 148.22L276.195 149.392Z" fill="#4A4A4A"/>
<path d="M268.057 112.08H293.461C289.067 97.689 271.549 54.6054 264.092 50.2733C256.634 45.9412 239.634 45.2439 233.464 51.2673C228.286 56.3263 223.359 69.1298 223.033 76.3697C221.465 110.626 222.752 117.258 219.482 154.244C244.28 155.698 266.178 152.196 275.987 151.751C275.987 151.751 277.452 141.04 274.819 129.141C272.481 118.637 268.057 112.08 268.057 112.08Z" fill="white"/>
<path d="M241.764 64.893L243.892 64.9915L239.751 154.561L237.623 154.462L241.764 64.893Z" fill="#EDEDED"/>
<path d="M346.209 303.3H350.219L336.177 137.583H325.746L346.209 303.3Z" fill="#E39A46"/>
<path d="M15.3433 123.919H440.177V137.598H15.3433V123.919Z" fill="#D4D4D4"/>
<path d="M430.146 303.3H434.156L420.114 137.583H409.683L430.146 303.3Z" fill="#FCCB92"/>
<path d="M25.7006 303.3H21.6909L35.7322 137.583H46.1633L25.7006 303.3Z" fill="#E39A46"/>
<path d="M109.652 303.3H105.643L119.669 137.583H130.1L109.652 303.3Z" fill="#FCCB92"/>
<path opacity="0.32" d="M339.728 123.919H440.177V137.598H347.6C345.218 132.865 342.687 128.206 339.728 123.919Z" fill="url(#paint1_linear_1_19)"/>
<path opacity="0.32" d="M304.618 123.919C307.577 128.295 310.196 132.88 312.607 137.598H275.351C273.265 133.043 271.179 128.488 269.019 123.963C269.019 123.949 269.004 123.934 269.004 123.919H304.618Z" fill="url(#paint2_linear_1_19)"/>
<path fill-rule="evenodd" clip-rule="evenodd" d="M248.763 31.6245L256.191 49.576L242.726 62.1569L238.672 51.3118L244.295 34.9033L248.763 31.6245Z" fill="url(#paint3_linear_1_19)"/>
<path fill-rule="evenodd" clip-rule="evenodd" d="M242.371 8.73253C235.994 7.45663 229.824 10.7502 228.863 16.5214C228.167 20.6755 228.582 27.5148 229.04 31.6837C229.41 34.9922 229.514 38.5676 231.023 41.6238C232.281 44.1756 234.707 46.6829 237.652 47.1725C240.714 47.6769 242.623 46.2675 244.857 44.2943C250.021 39.71 251.589 34.4581 252.122 27.4407C252.699 19.6666 252.714 9.25178 242.371 8.73253Z" fill="url(#paint4_linear_1_19)"/>
<path d="M231.363 53.73C231.363 53.73 200.469 88.2977 192.583 108.905C190.231 115.047 193.93 119.275 199.952 119.587C210.989 120.165 234.929 84.8261 234.929 84.8261L231.363 53.73Z" fill="white"/>
<path d="M181.827 112.391C181.294 113.815 187.627 119.008 189.032 119.587C190.438 120.18 191.562 119.779 193.071 120.002C194.788 120.269 196.534 120.536 198.25 120.299C199.966 120.061 201.683 119.231 202.6 117.747C203.798 115.789 204.435 112.48 203.295 110.492C201.357 107.139 197.066 102.11 194.906 103.697C190.556 106.872 183.232 108.697 181.827 112.391Z" fill="url(#paint5_linear_1_19)"/>
<path fill-rule="evenodd" clip-rule="evenodd" d="M195.868 118.578C195.883 118.934 195.853 119.32 195.602 119.557C195.217 119.913 194.566 119.661 194.181 119.29C193.796 118.919 193.471 118.43 192.968 118.281C192.169 118.044 191.429 118.756 190.896 119.394C190.364 120.032 189.594 120.729 188.81 120.462C188.1 120.225 187.863 119.364 187.508 118.697C187.168 118.029 186.236 117.45 185.733 117.999C185.481 118.281 185.496 118.711 185.392 119.082C185.082 120.254 183.469 120.685 182.404 120.091C181.338 119.498 180.82 118.252 180.687 117.035C180.377 114.172 182.048 111.204 184.653 109.973C190.571 107.228 195.661 113.059 195.868 118.578Z" fill="url(#paint6_linear_1_19)"/>
<path d="M267.909 56.2076C256.353 54.3086 268.797 123.904 268.797 123.904L277.926 123.444C288.727 118.682 288.372 117.747 286.729 110.759C282.72 93.5349 274.804 57.3351 267.909 56.2076Z" fill="white"/>
<path d="M225.238 123.874L167.504 123.919L168.185 122.153C168.658 120.952 169.812 120.151 171.114 120.151H220.858C222.5 120.151 223.995 121.115 224.675 122.613L225.238 123.874Z" fill="#83B9EB"/>
<path d="M218.15 120.151V119.809C218.15 119.379 217.795 119.023 217.366 119.023H214.525C214.096 119.023 213.741 119.379 213.741 119.809V120.151H218.15Z" fill="#CEE3F7"/>
<path d="M211.655 120.151V119.809C211.655 119.379 211.3 119.023 210.871 119.023H208.03C207.601 119.023 207.246 119.379 207.246 119.809V120.151H211.655Z" fill="#CEE3F7"/>
<path d="M205.174 120.151V119.809C205.174 119.379 204.819 119.023 204.39 119.023H201.55C201.12 119.023 200.765 119.379 200.765 119.809V120.151H205.174Z" fill="#CEE3F7"/>
<path d="M198.679 120.151V119.809C198.679 119.379 198.324 119.023 197.895 119.023H195.054C194.625 119.023 194.27 119.379 194.27 119.809V120.151H198.679Z" fill="#CEE3F7"/>
<path d="M192.184 120.151V119.809C192.184 119.379 191.829 119.023 191.4 119.023H188.559C188.13 119.023 187.775 119.379 187.775 119.809V120.151H192.184Z" fill="#CEE3F7"/>
<path d="M185.703 120.151V119.809C185.703 119.379 185.348 119.023 184.919 119.023H182.078C181.649 119.023 181.294 119.379 181.294 119.809V120.151H185.703Z" fill="#CEE3F7"/>
<path d="M179.208 120.151V119.809C179.208 119.379 178.853 119.023 178.424 119.023H175.583C175.154 119.023 174.798 119.379 174.798 119.809V120.151H179.208Z" fill="#CEE3F7"/>
<path d="M73.8462 99.9736H189.151C195.764 99.9736 201.12 94.603 201.12 87.9713V24.3844C201.12 17.7527 195.764 12.3821 189.151 12.3821H73.8462C67.2325 12.3821 61.8763 17.7527 61.8763 24.3844V87.9713C61.8763 94.603 67.2325 99.9736 73.8462 99.9736Z" fill="#CEE3F7"/>
<path opacity="0.51" d="M106.353 54.0712C122.791 59.2786 139.022 60.0946 155.845 56.2966C171.159 52.8398 185.688 47.2318 201.106 45.496V87.9714C201.106 94.603 195.749 99.9736 189.136 99.9736H73.8315C67.2177 99.9736 61.8616 94.603 61.8616 87.9714V37.1137C76.8203 42.4843 91.5717 49.3979 106.353 54.0712Z" fill="url(#paint7_linear_1_19)"/>
<path d="M131.387 73.0316L138.711 99.9737L111.221 100.137L109.815 86.5768L131.387 73.0316Z" fill="url(#paint8_linear_1_19)"/>
<path d="M154.41 123.919L151.791 122.064C148.995 120.091 145.665 119.038 142.248 119.038H123.531C123.531 119.038 113.144 106.412 121.4 94.6622H100.627C100.627 94.6622 89.7074 102.273 99.2951 119.038H89.7074V123.874L154.41 123.919Z" fill="#83B9EB"/>
<path d="M121.4 94.6624C121.4 94.6624 128.162 88.6687 130.1 83.6541C132.053 78.6396 131.387 73.0316 131.387 73.0316H110.081C110.081 73.0316 111.354 79.0105 109.282 83.847C108.483 85.7163 100.627 94.6624 100.627 94.6624H121.4Z" fill="#84BBF0"/>
<path fill-rule="evenodd" clip-rule="evenodd" d="M237.784 117.406C232.147 117.02 226.17 116.264 221.08 118.756C220.784 118.904 220.488 119.053 220.163 119.023C219.837 118.993 219.512 118.711 219.586 118.4C219.63 118.222 219.778 118.088 219.926 117.955C220.947 117.139 221.953 116.308 222.974 115.492C222.086 115.359 221.213 115.818 220.532 116.412C219.852 117.005 219.29 117.717 218.579 118.252C217.854 118.786 216.893 119.112 216.064 118.786C215.236 118.444 214.777 117.243 215.413 116.605C214.88 116.961 214.333 117.302 213.8 117.658C213.061 118.133 212.291 118.622 211.418 118.771C210.545 118.919 209.539 118.608 209.125 117.836C208.592 116.842 209.214 115.611 209.939 114.735C213.001 111.012 217.943 109.276 222.752 108.979C227.56 108.682 232.34 109.632 237.089 110.418C241.839 111.204 246.721 111.828 251.441 110.863C252.61 110.626 253.764 110.285 254.962 110.225C256.146 110.166 257.419 110.418 258.306 111.204C259.475 112.243 259.742 113.934 259.653 115.418C259.549 117.183 258.04 116.991 256.605 117.139C252.639 117.525 248.659 117.703 244.679 117.673C242.356 117.658 240.063 117.569 237.784 117.406Z" fill="url(#paint9_linear_1_19)"/>
<path d="M286.744 113.43C288.327 118.177 286.759 120.462 282.838 123.132C278.917 125.803 243.969 120.343 243.969 120.343V110.492C243.969 110.492 283.282 102.985 286.744 113.43Z" fill="url(#paint10_linear_1_19)"/>
<path d="M258.602 123.83H272.984L275.115 99.9589H256.472L258.602 123.83Z" fill="#FFCF4A"/>
<path fill-rule="evenodd" clip-rule="evenodd" d="M151.584 300.511L151.865 297.499L156.274 285.275H149.024L146.154 297.885L146.213 300.17L151.584 300.511Z" fill="url(#paint11_linear_1_19)"/>
<path d="M214.999 297.499L214.348 303.3H187.76C187.76 303.3 187.079 301.268 189.461 299.799C191.829 298.33 214.999 297.499 214.999 297.499Z" fill="#83B9EB"/>
<path d="M152.161 297.499L151.51 303.3H124.922C124.922 303.3 124.241 301.268 126.623 299.799C128.99 298.33 152.161 297.499 152.161 297.499Z" fill="#83B9EB"/>
<path d="M154.661 294.28C154.661 294.28 185.097 220.115 191.296 189.538C197.495 158.961 172.476 163.249 167.327 178.634C160.269 199.671 144.763 294.28 144.763 294.28H154.661Z" fill="#4A4A4A"/>
<path d="M379.13 70.9842H397.24V123.904H379.13V70.9842Z" fill="#83B9EB"/>
<path d="M383.302 76.5179H393.067V105.404H383.302V76.5179Z" fill="white"/>
<path d="M391.292 113.919C391.292 112.198 389.901 110.804 388.185 110.804C386.468 110.804 385.078 112.198 385.078 113.919C385.078 115.64 386.468 117.035 388.185 117.035C389.901 117.035 391.292 115.64 391.292 113.919Z" fill="#4A4A4A"/>
<path d="M361.034 70.9842H379.145V123.904H361.034V70.9842Z" fill="#FFCF4A"/>
<path d="M365.207 76.5179H374.972V105.404H365.207V76.5179Z" fill="white"/>
<path d="M373.197 113.919C373.197 112.198 371.806 110.804 370.089 110.804C368.373 110.804 366.982 112.198 366.982 113.919C366.982 115.64 368.373 117.035 370.089 117.035C371.806 117.035 373.197 115.64 373.197 113.919Z" fill="#4A4A4A"/>
<path d="M397.24 70.9842H415.35V123.904H397.24V70.9842Z" fill="#F08365"/>
<path d="M401.412 76.5179H411.177V105.404H401.412V76.5179Z" fill="white"/>
<path d="M409.402 113.919C409.402 112.198 408.011 110.804 406.295 110.804C404.579 110.804 403.188 112.198 403.188 113.919C403.188 115.64 404.579 117.035 406.295 117.035C408.011 117.035 409.402 115.64 409.402 113.919Z" fill="#4A4A4A"/>
<path d="M399.622 243.259C404.031 243.259 409.091 237.874 415.039 226.851C425.382 207.712 421.816 199.775 418.664 192.787C417.022 189.123 415.587 185.963 416.134 181.453C417.081 173.679 426.136 172.299 434.895 170.979C440.562 170.118 445.904 169.302 448.804 166.706C465.405 151.766 454.648 137.093 454.53 136.945L454.071 136.337L453.346 136.574C394.532 156.157 389.516 196.036 392.846 236.212L392.875 236.39C392.934 236.642 394.517 242.666 398.956 243.215C399.178 243.244 399.4 243.259 399.622 243.259ZM453.272 138.859C455.018 141.648 460.818 153.042 447.398 165.118C444.971 167.299 439.941 168.056 434.6 168.872C425.5 170.252 415.187 171.824 414.048 181.2C413.427 186.304 415.113 190.043 416.741 193.663C419.833 200.532 423.029 207.623 413.19 225.827C405.703 239.684 401.235 241.345 399.237 241.093C396.456 240.752 395.154 236.553 394.976 235.93C391.233 190.785 399.755 156.959 453.272 138.859Z" fill="#6AAEF0"/>
<path d="M397.758 242.873L398.128 240.767C394.577 240.144 388.821 231.791 387.756 227.667C383.361 210.665 384.22 202.268 385.196 192.52C385.581 188.663 385.995 184.672 386.143 179.821C386.542 166.735 393.881 164.644 399.77 162.952C402.078 162.299 404.076 161.721 405.392 160.564C406.576 159.525 408.366 157.048 410.867 153.62C415.927 146.662 423.562 136.159 430.057 132.954C439.512 128.295 449.025 131.93 452.769 138.132L454.589 137.019C450.342 129.987 439.66 125.833 429.11 131.025C422.156 134.452 414.625 144.793 409.136 152.345C406.902 155.416 404.978 158.071 403.972 158.947C403.01 159.792 401.22 160.297 399.163 160.89C393.304 162.567 384.441 165.089 383.998 179.747C383.85 184.539 383.45 188.485 383.065 192.298C382.059 202.238 381.186 210.813 385.67 228.186C386.824 232.592 392.831 241.998 397.758 242.873Z" fill="#6AAEF0"/>
<path d="M450.638 164.228L451.023 162.136C433.149 158.798 422.57 152.567 422.467 152.508L421.372 154.347C421.816 154.599 432.395 160.816 450.638 164.228Z" fill="#6AAEF0"/>
<path d="M438.136 170.415L438.446 168.293C417.525 165.281 411.74 162.27 411.695 162.24L410.674 164.109C410.896 164.243 416.682 167.329 438.136 170.415Z" fill="#6AAEF0"/>
<path d="M403.649 159.646L405.763 159.918L403.806 175.208L401.692 174.936L403.649 159.646Z" fill="#6AAEF0"/>
<path d="M393.467 213.395C409.861 210.843 419.019 197.149 419.404 196.571L417.629 195.399C417.54 195.532 408.574 208.884 393.141 211.288L393.467 213.395Z" fill="#6AAEF0"/>
<path d="M401.412 211.406C397.373 202.297 389.398 195.369 385.492 186.2C382.695 179.643 382.178 172.358 381.897 165.222C381.615 158.086 381.497 150.846 379.44 144.021C377.384 137.197 373.019 130.684 366.494 127.85C359.954 125.017 351.195 126.99 347.822 133.28C345.454 137.687 346.09 143.116 347.481 147.923C349.952 156.439 354.628 164.258 356.359 172.966C358.238 182.447 356.507 192.327 357.927 201.896C359.185 210.412 362.913 218.35 366.819 226.02C369.054 230.381 371.391 234.758 374.647 238.423C377.902 242.087 382.192 245.025 387.031 245.752C405.304 248.526 406.546 222.964 401.412 211.406Z" fill="#D4EAFF"/>
<path opacity="0.45" d="M347.807 133.28C350.944 127.42 358.785 125.313 365.118 127.346C358.208 128.073 351.787 133.696 352.556 141.41C353.178 147.745 358.342 152.033 362.573 156.172C369.246 162.685 374.158 170.815 373.448 180.444C372.856 188.425 369.468 196.259 370.785 204.359C371.599 209.285 374.351 213.854 377.635 217.534C383.82 224.462 395.509 229.076 401.235 219.047C401.842 217.993 402.359 216.777 402.788 215.486C406.073 228.052 403.365 248.244 387.001 245.751C382.163 245.01 377.872 242.087 374.617 238.423C371.362 234.758 369.024 230.381 366.79 226.02C362.884 218.349 359.155 210.412 357.898 201.896C356.477 192.327 358.223 182.446 356.329 172.966C354.598 164.272 349.938 156.439 347.452 147.923C346.061 143.102 345.44 137.686 347.807 133.28Z" fill="url(#paint12_linear_1_19)"/>
<path d="M382.71 263.332C383.05 263.332 383.376 263.169 383.583 262.887C391.455 251.76 393.851 236.746 389.812 223.705C388.155 218.32 385.477 213.29 382.888 208.439C380.402 203.766 377.828 198.929 376.23 193.855C374.173 187.387 373.64 180.429 373.122 173.693C372.989 171.928 372.856 170.148 372.693 168.397C371.939 160.207 370.459 150.801 365.207 143.235C364.866 142.746 364.215 142.627 363.727 142.968C363.239 143.309 363.12 143.977 363.461 144.452C368.432 151.617 369.838 160.667 370.578 168.59C370.74 170.34 370.873 172.106 371.007 173.857C371.539 180.711 372.087 187.802 374.217 194.508C375.889 199.76 378.508 204.686 381.038 209.448C383.568 214.225 386.202 219.151 387.8 224.343C391.632 236.761 389.354 251.063 381.867 261.656C381.527 262.13 381.645 262.798 382.118 263.139C382.281 263.273 382.503 263.332 382.71 263.332Z" fill="white"/>
<path d="M371.569 168.99C372.057 168.99 372.486 168.664 372.605 168.16C372.738 167.581 372.383 167.017 371.806 166.884L353.814 162.73C353.237 162.596 352.675 162.952 352.541 163.531C352.408 164.109 352.763 164.673 353.34 164.807L371.332 168.961C371.406 168.976 371.495 168.99 371.569 168.99Z" fill="white"/>
<path d="M371.569 179.657C372.087 179.657 372.545 179.272 372.619 178.738C372.708 178.159 372.294 177.61 371.717 177.536L357.039 175.429C356.462 175.355 355.915 175.756 355.841 176.334C355.752 176.913 356.166 177.462 356.743 177.536L371.421 179.643C371.465 179.657 371.525 179.657 371.569 179.657Z" fill="white"/>
<path d="M380.373 207C380.802 207 381.201 206.748 381.364 206.332L387.726 190.28C387.948 189.731 387.682 189.108 387.134 188.9C386.587 188.693 385.965 188.945 385.758 189.494L379.396 205.546C379.174 206.095 379.44 206.718 379.988 206.926C380.106 206.985 380.239 207 380.373 207Z" fill="white"/>
<path d="M366.76 302.173H422.585L425.781 267.783L428.977 233.393H360.369L363.564 267.783L366.76 302.173Z" fill="#6AAEF0"/>
<path opacity="0.6" d="M389.694 276.492C397.284 268.822 400.687 258.184 407.597 250.01C413.16 243.437 420.543 240.515 428.429 239.254L425.781 267.783L422.585 302.173H366.76L365.591 289.577C374.055 285.794 382.917 283.346 389.694 276.492Z" fill="url(#paint13_linear_1_19)"/>
<path d="M59.5238 120.284H65.8417C67.9575 120.284 69.7922 118.845 70.2952 116.783L71.6712 111.204C72.0115 109.825 71.7009 108.386 70.8279 107.273C69.9549 106.145 68.6381 105.507 67.2177 105.507H62.0243L59.5238 120.284ZM67.2029 107.644C67.9575 107.644 68.6677 107.985 69.1411 108.593C69.6146 109.187 69.7774 109.958 69.5998 110.7L68.2238 116.278C67.9575 117.376 66.9661 118.148 65.8417 118.148H62.0539L63.8294 107.644H67.2029Z" fill="#F08365"/>
<path d="M46.0448 123.919H63.2227L68.1646 100.938H46.7402L46.0448 123.919Z" fill="#F08365"/>
<path opacity="0.68" d="M51.534 115.462C53.5315 113.727 54.6856 111.442 56.0764 109.246C58.8432 104.914 62.0095 102.837 66.5666 100.923H68.1646L63.2227 123.904H46.0448L46.2223 118.088C48.1162 117.569 49.9361 116.842 51.534 115.462Z" fill="url(#paint14_linear_1_19)"/>
<path d="M254.578 27.8709C255.377 23.7465 255.362 16.8033 253.912 14.3108C251.781 10.6167 248.038 8.36162 243.94 7.66433C239.101 6.83352 235.092 6.47745 231.348 3.19871C229.307 1.40356 225.903 -0.732813 223.018 0.24636C218.298 1.86348 217.84 12.7531 220.488 16.2098C223.507 20.171 231.718 24.5476 236.882 23.4943C240.862 22.6783 245.02 21.2244 247.994 18.1682C249.296 22.0255 245.508 28.3753 247.402 32.1436C249.962 37.2027 253.379 34.0278 254.578 27.8709Z" fill="#4A4A4A"/>
<path d="M52.2146 96.6206C52.5401 96.9915 53.1172 97.0212 53.5166 96.7393L53.9457 96.2646C54.1233 95.9085 54.0049 95.4041 53.5462 94.9145C52.0518 93.327 50.0544 92.333 48.131 91.428C47.3468 91.0571 46.533 90.6862 45.734 90.3153C39.7417 87.5559 33.5274 84.6925 30.0208 79.3664C25.656 72.7347 27.0616 62.7947 33.0836 57.6466C38.8392 52.721 48.2641 52.6617 54.1825 57.3647C54.6264 57.7208 55.2626 57.6911 55.6473 57.2757C56.0615 56.8306 56.032 56.1185 55.5585 55.7327C46.8141 48.7005 31.8703 50.8517 27.0469 62.4831C23.703 70.5538 25.804 79.678 32.5213 85.2563C36.1167 88.2383 40.5259 90.2708 44.8463 92.2737C45.6453 92.6446 46.4442 93.0006 47.2284 93.3715C49.0483 94.2172 50.9274 95.1815 52.2146 96.6206Z" fill="#E3EFFA"/>
<path d="M60.1304 75.791C72.6773 76.1174 83.6558 66.474 84.8543 53.9376C86.2303 39.5022 74.9115 27.3071 60.7962 27.3071C55.3661 27.3071 50.084 29.1467 45.8375 32.4997C45.3641 32.8706 45.3197 33.5827 45.7044 34.0426C46.0743 34.4728 46.7253 34.5173 47.1692 34.1613C53.2946 29.3396 61.7283 27.9747 69.437 31.1941C76.8497 34.2948 81.9987 41.4309 82.7385 49.4572C83.9517 62.587 73.639 73.6546 60.7962 73.6546C57.7039 73.6546 54.7447 73.0315 51.963 71.8149C51.4304 71.5776 50.8238 71.7853 50.5722 72.3045C50.3059 72.8386 50.5278 73.5211 51.0753 73.7585C53.9309 75.0195 56.964 75.702 60.1304 75.791Z" fill="#E3EFFA"/>
<path d="M1.47955 304.784H524.514C525.328 304.784 525.994 304.116 525.994 303.3C525.994 302.484 525.328 301.817 524.514 301.817H1.47955C0.665771 301.817 0 302.484 0 303.3C0 304.116 0.665771 304.784 1.47955 304.784Z" fill="#D4EAFF"/>
<defs>
<linearGradient id="paint0_linear_1_19" x1="212.748" y1="298.679" x2="212.468" y2="277.858" gradientUnits="userSpaceOnUse">
<stop stop-color="#FFB08E"/>
<stop offset="1" stop-color="#FFBDA1"/>
</linearGradient>
<linearGradient id="paint1_linear_1_19" x1="306.343" y1="130.75" x2="-48.1399" y2="130.75" gradientUnits="userSpaceOnUse">
<stop stop-color="white"/>
<stop offset="1" stop-color="#F2F2F2"/>
</linearGradient>
<linearGradient id="paint2_linear_1_19" x1="306.344" y1="130.75" x2="-48.1392" y2="130.75" gradientUnits="userSpaceOnUse">
<stop stop-color="white"/>
<stop offset="1" stop-color="#F2F2F2"/>
</linearGradient>
<linearGradient id="paint3_linear_1_19" x1="247.533" y1="57.9464" x2="246.996" y2="18.1525" gradientUnits="userSpaceOnUse">
<stop stop-color="#F09B76"/>
<stop offset="1" stop-color="#FFB291"/>
</linearGradient>
<linearGradient id="paint4_linear_1_19" x1="243.953" y1="40.9124" x2="232.509" y2="-7.60157" gradientUnits="userSpaceOnUse">
<stop stop-color="#FFB08E"/>
<stop offset="1" stop-color="#FFBDA1"/>
</linearGradient>
<linearGradient id="paint5_linear_1_19" x1="193.604" y1="113.319" x2="208.316" y2="107.314" gradientUnits="userSpaceOnUse">
<stop stop-color="white"/>
<stop offset="1" stop-color="#F2F2F2"/>
</linearGradient>
<linearGradient id="paint6_linear_1_19" x1="188.284" y1="118.996" x2="188.086" y2="104.289" gradientUnits="userSpaceOnUse">
<stop stop-color="#FFB08E"/>
<stop offset="1" stop-color="#FFBDA1"/>
</linearGradient>
<linearGradient id="paint7_linear_1_19" x1="131.495" y1="94.8886" x2="131.495" y2="28.9513" gradientUnits="userSpaceOnUse">
<stop stop-color="white"/>
<stop offset="0.1113" stop-color="#F5F9FF"/>
<stop offset="0.4616" stop-color="#D9EAFF"/>
<stop offset="0.7695" stop-color="#C8E1FF"/>
<stop offset="1" stop-color="#C2DEFF"/>
</linearGradient>
<linearGradient id="paint8_linear_1_19" x1="124.263" y1="103.334" x2="124.263" y2="70.2134" gradientUnits="userSpaceOnUse">
<stop stop-color="white"/>
<stop offset="0.1113" stop-color="#F5F9FF"/>
<stop offset="0.4616" stop-color="#D9EAFF"/>
<stop offset="0.7695" stop-color="#C8E1FF"/>
<stop offset="1" stop-color="#C2DEFF"/>
</linearGradient>
<linearGradient id="paint9_linear_1_19" x1="234.294" y1="117.467" x2="234.117" y2="104.32" gradientUnits="userSpaceOnUse">
<stop stop-color="#FFB08E"/>
<stop offset="1" stop-color="#FFBDA1"/>
</linearGradient>
<linearGradient id="paint10_linear_1_19" x1="273.688" y1="115.877" x2="237.485" y2="115.877" gradientUnits="userSpaceOnUse">
<stop stop-color="white"/>
<stop offset="1" stop-color="#F2F2F2"/>
</linearGradient>
<linearGradient id="paint11_linear_1_19" x1="151.307" y1="298.435" x2="151.038" y2="278.485" gradientUnits="userSpaceOnUse">
<stop stop-color="#FFB08E"/>
<stop offset="1" stop-color="#FFBDA1"/>
</linearGradient>
<linearGradient id="paint12_linear_1_19" x1="375.122" y1="263.031" x2="375.122" y2="86.4557" gradientUnits="userSpaceOnUse">
<stop stop-color="white"/>
<stop offset="0.1113" stop-color="#F5F9FF"/>
<stop offset="0.4616" stop-color="#D9EAFF"/>
<stop offset="0.7695" stop-color="#C8E1FF"/>
<stop offset="1" stop-color="#C2DEFF"/>
</linearGradient>
<linearGradient id="paint13_linear_1_19" x1="397.009" y1="310.311" x2="397.009" y2="226.232" gradientUnits="userSpaceOnUse">
<stop stop-color="white"/>
<stop offset="0.1113" stop-color="#F5F9FF"/>
<stop offset="0.4616" stop-color="#D9EAFF"/>
<stop offset="0.7695" stop-color="#C8E1FF"/>
<stop offset="1" stop-color="#C2DEFF"/>
</linearGradient>
<linearGradient id="paint14_linear_1_19" x1="57.1104" y1="126.629" x2="57.1104" y2="98.5409" gradientUnits="userSpaceOnUse">
<stop stop-color="white"/>
<stop offset="0.1113" stop-color="#FFF5F5"/>
<stop offset="0.4616" stop-color="#FFD9DB"/>
<stop offset="0.7695" stop-color="#FFC8CC"/>
<stop offset="1" stop-color="#FFC2C6"/>
</linearGradient>
</defs>
</svg>
